<?xml version="1.0" encoding="UTF-8"?>
<svg xmlns="http://www.w3.org/2000/svg" xmlns:xlink="http://www.w3.org/1999/xlink" width="595pt" height="595.2pt" viewBox="0 0 595 595.2" version="1.1">
<defs>
<clipPath id="clip1">
  <path d="M 0 0 L 595 0 L 595 595.199219 L 0 595.199219 Z M 0 0 "/>
</clipPath>
</defs>
<g id="surface1">
<path style=" stroke:none;fill-rule:evenodd;fill:rgb(25.097656%,25.097656%,24.705505%);fill-opacity:1;" d="M 590.242188 297.546875 C 590.242188 459.148438 459.238281 590.152344 297.636719 590.152344 C 136.035156 590.152344 5.03125 459.148438 5.03125 297.546875 C 5.03125 135.945313 136.035156 4.941406 297.636719 4.941406 C 459.238281 4.941406 590.242188 135.945313 590.242188 297.546875 Z M 590.242188 297.546875 "/>
<g clip-path="url(#clip1)" clip-rule="nonzero">
<path style="fill:none;stroke-width:100.65;stroke-linecap:butt;stroke-linejoin:miter;stroke:rgb(29.026794%,28.637695%,29.026794%);stroke-opacity:1;stroke-miterlimit:4;" d="M 5902.421875 2976.53125 C 5902.421875 1360.515625 4592.382813 50.476563 2976.367188 50.476563 C 1360.351563 50.476563 50.3125 1360.515625 50.3125 2976.53125 C 50.3125 4592.546875 1360.351563 5902.585938 2976.367188 5902.585938 C 4592.382813 5902.585938 5902.421875 4592.546875 5902.421875 2976.53125 Z M 5902.421875 2976.53125 " transform="matrix(0.1,0,0,-0.1,0,595.2)"/>
</g>
<path style=" stroke:none;fill-rule:evenodd;fill:rgb(88.28125%,47.459412%,14.892578%);fill-opacity:1;" d="M 100.507813 175.328125 L 91.878906 164.113281 L 108.847656 153.617188 C 104.683594 160.234375 101.84375 167.621094 100.507813 175.328125 Z M 183.757813 284.894531 L 179.734375 285.179688 C 177 285.46875 172.398438 284.316406 169.238281 285.324219 L 171.25 295.53125 L 185.054688 291.363281 C 184.761719 289.191406 184.324219 287.015625 183.757813 284.894531 Z M 180.019531 384.96875 L 177.433594 388.132813 L 176.855469 395.894531 L 179.445313 395.175781 C 183.390625 393.910156 187.445313 392.878906 191.519531 392.15625 L 192.382813 376.050781 C 187.761719 378.246094 183.570313 381.277344 180.023438 384.96875 Z M 453.503906 116.808594 C 410.238281 100.261719 364.265625 91.585938 317.914063 91.351563 C 259.539063 91.351563 203.605469 105.730469 149.972656 131.464844 C 157.714844 132.34375 165.375 134.191406 172.683594 136.933594 C 183.898438 132.039063 194.96875 127.871094 206.1875 124.136719 C 242.160156 112.109375 279.941406 105.820313 317.894531 105.734375 C 357.261719 105.910156 396.390625 112.492188 433.671875 125.023438 C 405.492188 185.414063 388.378906 240.054688 381.476563 291.671875 C 379.167969 308.382813 377.957031 325.398438 377.957031 342.328125 C 377.957031 354.363281 378.585938 366.53125 379.753906 378.476563 C 382.4375 403.148438 387.976563 427.558594 396.125 450.964844 C 347.238281 479.433594 300.222656 493.238281 252.773438 493.238281 C 225.65625 493.148438 198.625 488.59375 172.96875 479.878906 C 167.445313 482.078125 161.542969 483.261719 155.582031 483.320313 L 154.285156 488.351563 C 185.585938 500.9375 219.03125 507.488281 252.769531 507.621094 C 308.703125 507.621094 362.335938 489.070313 413.808594 457.152344 C 372.257813 352.1875 393.679688 239.316406 453.496094 116.808594 Z M 140.765625 227.664063 C 138.035156 222.058594 135.160156 216.59375 132.140625 211.132813 C 131.132813 212.855469 129.984375 216.882813 127.96875 218.464844 L 133.289063 228.671875 C 135.753906 228.191406 138.261719 227.847656 140.769531 227.664063 Z M 140.765625 227.664063 "/>
<path style=" stroke:none;fill-rule:evenodd;fill:rgb(96.875%,56.054688%,12.547302%);fill-opacity:1;" d="M 388.511719 292.515625 C 395.699219 239.746094 413.671875 183.378906 443.582031 120.828125 C 403.316406 106.351563 360.730469 98.769531 317.914063 98.539063 C 266.296875 98.539063 214.101563 110.328125 162.339844 133.765625 C 178.398438 137.765625 193.117188 146.027344 204.890625 157.644531 L 206.90625 159.800781 C 208.988281 161.652344 210.613281 163.96875 211.65625 166.558594 C 211.914063 167.789063 212.046875 169.0625 212.046875 170.324219 C 212.046875 172.316406 211.71875 174.304688 211.078125 176.191406 C 207.757813 187.203125 200.203125 196.460938 190.085938 201.929688 C 178.296875 208.257813 164.925781 206.960938 152.128906 204.230469 C 148.535156 203.511719 144.652344 202.789063 140.914063 203.65625 C 137.175781 204.519531 134.296875 207.394531 132.140625 210.988281 C 135.160156 216.453125 138.035156 221.914063 140.769531 227.523438 C 145.417969 227.144531 150.136719 226.921875 154.816406 226.921875 C 155.78125 226.921875 156.785156 226.941406 157.726563 226.941406 C 172.25 226.796875 186.773438 225.789063 201.152344 228.09375 C 207.792969 228.914063 214.335938 230.574219 220.566406 232.984375 C 223.042969 233.847656 225.339844 235.164063 227.328125 236.871094 L 227.46875 236.867188 C 229.707031 239.214844 231.425781 242.011719 232.503906 245.066406 C 241.851563 270.660156 222.726563 293.234375 199.71875 301.429688 C 190.601563 304.539063 181.03125 306.355469 171.394531 306.746094 C 171.050781 306.777344 170.707031 306.789063 170.363281 306.789063 C 169.648438 306.789063 168.933594 306.726563 168.230469 306.605469 L 169.8125 314.941406 C 175.132813 313.363281 180.453125 311.78125 185.917969 310.484375 C 193.589844 308.511719 201.484375 306.980469 209.359375 306.023438 C 215.398438 305.445313 224.886719 303.289063 229.777344 307.890625 C 232.363281 310.191406 233.800781 313.644531 235.238281 316.949219 C 237.773438 322.640625 240.066406 328.554688 242 334.492188 C 243.246094 338.144531 243.890625 341.980469 243.890625 345.835938 C 243.890625 346.992188 243.832031 348.160156 243.71875 349.308594 C 242.425781 357.648438 236.097656 364.550781 228.910156 369.148438 C 215.535156 377.777344 200.007813 382.523438 185.917969 389.425781 C 182.234375 391.226563 178.65625 393.308594 175.277344 395.613281 L 174.558594 408.839844 C 184.714844 406.234375 195.21875 404.902344 205.71875 404.902344 C 212.757813 404.902344 219.816406 405.496094 226.75 406.679688 C 229.988281 407.140625 233.113281 408.21875 235.953125 409.84375 C 241.128906 413.007813 243.71875 419.191406 243.71875 425.230469 C 243.71875 431.269531 241.273438 437.019531 238.253906 442.195313 C 229.542969 455.941406 216.386719 466.335938 201.011719 471.664063 C 193.679688 474.253906 186.058594 475.261719 178.871094 477.703125 C 173.707031 479.628906 168.378906 481.285156 163.050781 482.601563 C 163.011719 482.992188 162.914063 483.378906 162.765625 483.746094 C 191.546875 494.460938 222.027344 500.097656 252.765625 500.289063 C 303.234375 500.289063 352.984375 485.191406 404.894531 453.992188 C 391.644531 417.941406 384.855469 379.703125 384.855469 341.261719 C 384.855469 324.972656 386.132813 308.605469 388.527344 292.519531 Z M 388.511719 292.515625 "/>
<path style=" stroke:none;fill-rule:evenodd;fill:rgb(99.21875%,80.46875%,62.693787%);fill-opacity:1;" d="M 297.351563 241.902344 C 307.992188 240.175781 318.628906 225.941406 321.792969 208.972656 C 324.957031 192.007813 314.460938 177.914063 298.214844 179.355469 C 281.964844 180.789063 272.332031 197.183594 274.777344 214.289063 C 277.21875 231.40625 286.710938 243.484375 297.351563 241.902344 Z M 297.351563 241.902344 "/>
<path style=" stroke:none;fill-rule:evenodd;fill:rgb(88.28125%,47.068787%,15.281677%);fill-opacity:1;" d="M 353.714844 335.21875 C 323.664063 315.953125 310.003906 283.164063 286.566406 250.242188 C 264.28125 290.496094 255.363281 332.054688 227.324219 363.976563 C 273.769531 366.277344 315.035156 352.902344 353.714844 335.21875 Z M 353.714844 335.21875 "/>
<path style=" stroke:none;fill-rule:evenodd;fill:rgb(78.514099%,38.426208%,15.696716%);fill-opacity:1;" d="M 317.191406 392.015625 C 278.800781 356.785156 264.136719 303.441406 207.195313 272.238281 C 215.824219 321.269531 217.117188 364.121094 185.917969 400.066406 C 234.515625 411.714844 277.507813 405.675781 317.191406 392.015625 Z M 317.191406 392.015625 "/>
<path style="fill:none;stroke-width:57.515;stroke-linecap:butt;stroke-linejoin:miter;stroke:rgb(88.28125%,47.068787%,15.281677%);stroke-opacity:1;stroke-miterlimit:4;" d="M 3642.109375 2444.539063 C 3061.210938 2188.601563 2451.5625 2027.546875 1778.632813 2139.695313 C 1887.929688 2776.6875 1794.453125 3387.78125 1360.234375 3944.226563 C 2100.703125 4287.859375 2936.132813 4499.226563 3908.125 4336.765625 C 3601.835938 3662.390625 3465.234375 3034.03125 3642.109375 2444.539063 Z M 3642.109375 2444.539063 " transform="matrix(0.1,0,0,-0.1,0,595.2)"/>
<path style=" stroke:none;fill-rule:evenodd;fill:rgb(96.875%,86.71875%,76.951599%);fill-opacity:1;" d="M 205.757813 159.078125 C 191.167969 144.054688 171.902344 134.410156 151.125 131.753906 C 149.007813 131.398438 146.847656 131.203125 144.699219 131.203125 C 141.828125 131.203125 138.957031 131.539063 136.164063 132.191406 C 114.882813 137.511719 97.628906 165.980469 100.503906 187.261719 C 102.519531 200.921875 112.296875 209.117188 122.648438 216.882813 C 123.46875 217.628906 124.457031 218.171875 125.527344 218.464844 C 128.832031 218.894531 130.414063 212.710938 131.851563 210.554688 C 133.289063 208.398438 136.308594 204.371094 140.765625 203.511719 C 141.953125 203.351563 143.160156 203.269531 144.359375 203.269531 C 146.9375 203.269531 149.511719 203.644531 151.984375 204.371094 C 164.636719 207.390625 178.007813 208.828125 190.085938 202.789063 C 200.242188 197.601563 207.949219 188.601563 211.511719 177.769531 C 212.242188 175.847656 212.617188 173.804688 212.617188 171.746094 C 212.617188 170.535156 212.488281 169.320313 212.230469 168.140625 C 211.304688 165.523438 209.773438 163.15625 207.773438 161.234375 Z M 205.757813 159.078125 "/>
<path style=" stroke:none;fill-rule:evenodd;fill:rgb(91.796875%,80.859375%,69.334412%);fill-opacity:1;" d="M 190.085938 202.789063 L 194.113281 200.492188 C 181.746094 198.621094 176.570313 200.347656 173.980469 199.484375 C 171.394531 198.621094 160.464844 199.195313 156.726563 198.191406 C 152.988281 197.183594 147.957031 197.472656 144.792969 196.753906 C 140.175781 195.636719 135.445313 194.941406 130.699219 194.734375 C 123.367188 194.015625 117.183594 191.140625 113.015625 194.304688 C 108.84375 197.46875 107.265625 198.039063 104.964844 199.480469 C 109.277344 206.382813 115.890625 211.703125 122.648438 216.878906 C 123.46875 217.628906 124.457031 218.171875 125.527344 218.464844 C 128.832031 218.894531 130.414063 212.710938 131.851563 210.554688 C 133.289063 208.398438 136.308594 204.371094 140.765625 203.511719 C 141.953125 203.351563 143.160156 203.269531 144.359375 203.269531 C 146.9375 203.269531 149.511719 203.644531 151.984375 204.371094 C 164.636719 207.390625 178.007813 208.828125 190.085938 202.789063 Z M 190.085938 202.789063 "/>
<path style=" stroke:none;fill-rule:evenodd;fill:rgb(20.384216%,72.459412%,92.1875%);fill-opacity:1;" d="M 214.960938 164.976563 L 214.386719 164.257813 C 212.949219 163.105469 210.789063 162.960938 209.066406 162.386719 L 202.308594 159.800781 C 198.425781 158.648438 194.398438 157.640625 190.515625 156.347656 C 181.171875 153.902344 170.242188 151.460938 161.328125 156.636719 C 156.710938 159.136719 153.441406 163.566406 152.414063 168.714844 C 152.285156 169.492188 152.222656 170.285156 152.222656 171.074219 C 152.222656 174.925781 153.738281 178.621094 156.4375 181.367188 C 160.035156 184.820313 165.640625 186.6875 170.386719 188.414063 C 179.21875 192.230469 188.597656 194.8125 198.136719 196.035156 C 198.65625 196.140625 199.1875 196.195313 199.71875 196.195313 C 200.25 196.195313 200.78125 196.140625 201.300781 196.035156 C 202.007813 195.738281 202.644531 195.296875 203.171875 194.738281 C 205.964844 192.804688 208.535156 190.527344 210.792969 187.984375 C 213.261719 184.769531 214.804688 180.9375 215.25 176.910156 C 215.597656 174.785156 215.777344 172.621094 215.777344 170.46875 C 215.777344 169.550781 215.742188 168.621094 215.679688 167.703125 C 215.679688 167.699219 215.679688 167.691406 215.679688 167.683594 C 215.679688 166.734375 215.433594 165.800781 214.960938 164.976563 Z M 214.960938 164.976563 "/>
<path style=" stroke:none;fill-rule:evenodd;fill:rgb(86.71875%,75.78125%,65.818787%);fill-opacity:1;" d="M 127.96875 214.148438 C 125.667969 214.148438 125.667969 213.71875 121.929688 213.144531 C 118.191406 212.570313 119.488281 212.855469 117.90625 212.996094 L 117.617188 212.996094 L 122.648438 216.882813 L 124.230469 218.03125 L 125.957031 218.464844 C 126.789063 218.34375 127.550781 217.9375 128.113281 217.3125 L 129.550781 215.300781 L 129.984375 214.289063 Z M 127.96875 214.148438 "/>
<path style=" stroke:none;fill-rule:evenodd;fill:rgb(96.875%,86.71875%,76.951599%);fill-opacity:1;" d="M 499.65625 282.449219 C 492.753906 268.644531 485.566406 254.984375 477.945313 241.613281 L 474.207031 235.285156 L 472.625 232.699219 L 469.75 227.953125 C 469.1875 227.246094 468.703125 226.46875 468.3125 225.652344 L 463.855469 218.894531 C 459.253906 212.136719 454.078125 204.515625 446.457031 200.632813 C 438.835938 196.753906 430.351563 196.320313 422.445313 194.882813 C 415.460938 193.335938 408.308594 192.535156 401.148438 192.535156 C 394.929688 192.535156 388.710938 193.132813 382.609375 194.300781 C 363.34375 199.046875 348.53125 212.5625 335.304688 226.511719 C 322.074219 240.453125 307.121094 257.425781 298.78125 276.691406 L 297.488281 279.996094 C 294.753906 287.039063 293.175781 294.664063 294.753906 301.996094 C 297.34375 315.371094 310.140625 325.148438 323.65625 327.734375 L 326.101563 328.023438 L 340.773438 328.03125 C 348.597656 326.910156 356.308594 324.808594 363.636719 321.84375 C 384.160156 314.9375 401.808594 301.289063 413.671875 283.171875 C 410.511719 288.351563 407.707031 293.8125 405.339844 299.410156 C 403.097656 304.796875 401.589844 310.453125 400.871094 316.238281 C 400.832031 317.34375 400.535156 318.425781 400.015625 319.402344 C 398.574219 321.703125 395.269531 321.558594 392.824219 322.421875 C 392.015625 322.679688 391.273438 323.121094 390.667969 323.714844 C 390.371094 329.453125 390.183594 335.320313 390.183594 341.113281 C 390.183594 381.203125 397.957031 420.992188 412.972656 458.152344 C 389.929688 472.972656 365.25 485.203125 339.476563 494.40625 C 372.117188 498.863281 407.777344 500.871094 436.390625 482.183594 C 457.238281 468.378906 470.46875 446.664063 480.675781 424.527344 C 490.886719 402.382813 501.957031 377.363281 509.144531 352.777344 C 512.136719 343.65625 513.792969 334.148438 514.03125 324.578125 C 514.175781 309.339844 506.269531 295.824219 499.652344 282.453125 Z M 499.65625 282.449219 "/>
<path style=" stroke:none;fill-rule:evenodd;fill:rgb(86.71875%,75.78125%,65.818787%);fill-opacity:1;" d="M 391.816406 367.714844 L 391.675781 366.5625 C 391.667969 366.644531 391.664063 366.726563 391.664063 366.808594 C 391.664063 367.117188 391.714844 367.421875 391.816406 367.714844 Z M 390.667969 348.160156 L 390.523438 339.964844 Z M 392.96875 320.984375 C 395.554688 320.121094 398.863281 320.265625 400.300781 318.109375 C 400.789063 317.117188 401.082031 316.039063 401.164063 314.945313 C 401.855469 309.113281 403.363281 303.394531 405.621094 297.972656 C 407.9375 292.371094 410.699219 286.925781 413.820313 281.734375 C 408.351563 291.039063 400.929688 299.09375 392.105469 305.308594 L 390.8125 322.277344 Z M 411.804688 317.820313 L 412.378906 325.730469 Z M 411.515625 308.90625 L 411.804688 317.246094 Z M 411.660156 283.3125 C 411.371094 288.914063 411.371094 294.527344 411.371094 300.132813 C 411.371094 294.527344 411.371094 288.914063 411.660156 283.3125 Z M 411.660156 283.3125 "/>
<path style=" stroke:none;fill-rule:evenodd;fill:rgb(91.796875%,80.859375%,69.334412%);fill-opacity:1;" d="M 390.8125 337.085938 C 390.710938 337.839844 390.660156 338.605469 390.660156 339.363281 C 390.660156 339.515625 390.664063 339.671875 390.667969 339.820313 L 390.667969 342.121094 L 390.8125 348.160156 L 390.8125 350.460938 L 391.097656 356.640625 L 391.242188 358.800781 L 391.671875 365.269531 C 391.671875 365.363281 391.667969 365.453125 391.667969 365.550781 C 391.667969 366.035156 391.71875 366.519531 391.816406 366.996094 L 392.535156 374.902344 L 392.535156 375.191406 C 393.109375 380.652344 393.828125 386.261719 394.835938 391.726563 C 394.859375 392.355469 394.960938 392.984375 395.125 393.59375 L 396.132813 399.632813 C 396.375 400.527344 396.570313 401.449219 396.707031 402.367188 L 397.855469 407.6875 L 398.429688 410.703125 L 399.582031 415.59375 L 400.445313 418.757813 L 401.738281 423.644531 L 402.601563 426.808594 L 404.039063 431.554688 C 404.308594 432.621094 404.648438 433.6875 405.046875 434.71875 L 406.628906 439.609375 C 406.898438 440.632813 407.234375 441.644531 407.632813 442.621094 C 408.191406 444.371094 408.824219 446.109375 409.507813 447.804688 L 410.371094 450.394531 L 413.390625 458.15625 L 404.90625 463.476563 L 404.1875 463.910156 L 395.992188 468.652344 L 394.984375 469.230469 L 386.933594 473.539063 L 385.78125 474.261719 L 377.730469 478.289063 L 376.4375 479.007813 L 368.382813 482.890625 L 367.234375 483.320313 L 359.039063 487.058594 L 357.886719 487.488281 L 349.546875 490.796875 L 348.828125 491.085938 L 339.914063 494.390625 C 372.554688 498.847656 408.210938 500.863281 436.828125 482.027344 C 445.550781 476.246094 453.300781 469.050781 459.6875 460.746094 C 452.574219 412.53125 428.042969 368.523438 390.800781 337.097656 Z M 527.695313 366.132813 C 536.035156 351.324219 534.453125 353.765625 529.566406 337.949219 C 525.683594 332.488281 521.226563 327.308594 515.332031 324.289063 C 509.433594 321.273438 499.226563 319.976563 491.316406 318.539063 C 486.429688 317.675781 481.683594 316.953125 476.796875 316.527344 C 494.769531 332.34375 499.515625 348.015625 499.65625 361.386719 C 499.800781 374.761719 488.296875 396.183594 482.546875 406.824219 C 476.796875 417.464844 453.789063 464.195313 487.003906 421.777344 C 497.355469 408.695313 509.578125 400.929688 517.054688 387.988281 C 524.53125 375.046875 518.351563 382.953125 527.695313 366.132813 Z M 527.695313 366.132813 "/>
<path style=" stroke:none;fill-rule:evenodd;fill:rgb(62.304688%,52.929688%,74.804688%);fill-opacity:1;" d="M 334.304688 256.855469 C 331.722656 257.871094 329.335938 259.328125 327.257813 261.164063 C 321.363281 265.484375 316.1875 270.660156 310.867188 275.402344 C 305.546875 280.148438 297.351563 284.746094 295.335938 292.515625 C 294.988281 294.050781 294.804688 295.632813 294.804688 297.210938 C 294.804688 299.78125 295.28125 302.335938 296.199219 304.734375 C 298.355469 311.636719 302.238281 318.246094 308.277344 322.277344 C 319.347656 329.609375 331.425781 323.285156 340.628906 315.949219 C 349.832031 308.617188 359.464844 303.296875 364.210938 293.371094 C 368.957031 283.453125 362.339844 274.394531 357.019531 267.636719 C 351.703125 260.878906 344.222656 254.410156 335.597656 256.421875 Z M 334.304688 256.855469 "/>
<path style=" stroke:none;fill-rule:evenodd;fill:rgb(96.875%,86.71875%,76.951599%);fill-opacity:1;" d="M 227.328125 237.300781 L 227.183594 237.300781 C 225.15625 235.652344 222.867188 234.335938 220.425781 233.414063 C 214.144531 231.140625 207.628906 229.492188 201.015625 228.53125 C 186.636719 226.230469 172.113281 227.378906 157.589844 227.378906 C 143.070313 227.378906 129.839844 227.378906 117.761719 234.570313 C 105.683594 241.757813 99.214844 255.414063 96.769531 268.070313 C 94.324219 280.726563 96.480469 292.804688 103.527344 302.578125 C 111.621094 312.851563 123.992188 318.855469 137.074219 318.855469 C 142.371094 318.855469 147.625 317.871094 152.558594 315.953125 C 153.730469 315.558594 154.8125 314.921875 155.722656 314.078125 C 156.871094 312.789063 157.160156 310.914063 158.023438 309.335938 C 160.179688 305.164063 167.367188 307.324219 171.105469 307.179688 C 180.71875 306.644531 190.289063 304.84375 199.4375 301.855469 C 222.585938 293.515625 241.710938 270.941406 232.363281 245.488281 C 231.3125 242.429688 229.589844 239.621094 227.328125 237.300781 Z M 227.328125 237.300781 "/>
<path style=" stroke:none;fill-rule:evenodd;fill:rgb(91.796875%,80.859375%,69.334412%);fill-opacity:1;" d="M 165.355469 325.726563 C 169.09375 324.578125 164.636719 314.945313 161.328125 308.617188 C 160.953125 308.070313 160.332031 307.742188 159.667969 307.742188 C 159.597656 307.742188 159.527344 307.746094 159.460938 307.753906 C 162.480469 305.886719 168.085938 307.324219 171.105469 307.179688 C 180.71875 306.644531 190.289063 304.84375 199.4375 301.855469 C 209.652344 298.210938 218.714844 291.835938 225.601563 283.453125 C 204.898438 281.15625 195.550781 300.710938 164.636719 297.402344 C 151.121094 295.964844 139.476563 299.273438 127.683594 299.558594 C 115.894531 299.847656 106.261719 294.097656 102.523438 300.996094 L 103.527344 302.578125 C 109.710938 311.203125 119.632813 316.527344 130.128906 318.253906 L 130.558594 318.246094 C 132.695313 318.632813 134.871094 318.828125 137.046875 318.828125 C 137.136719 318.828125 137.226563 318.828125 137.316406 318.828125 C 145.800781 320.121094 153.996094 323.429688 162.335938 325.441406 C 162.972656 325.691406 163.65625 325.824219 164.34375 325.824219 C 164.683594 325.824219 165.019531 325.789063 165.355469 325.726563 Z M 165.355469 325.726563 "/>
<path style=" stroke:none;fill-rule:evenodd;fill:rgb(86.71875%,75.78125%,65.818787%);fill-opacity:1;" d="M 129.695313 318.246094 L 129.550781 318.246094 C 140.910156 317.820313 151.550781 322.851563 162.335938 325.441406 C 162.972656 325.691406 163.65625 325.824219 164.34375 325.824219 C 164.683594 325.824219 165.019531 325.789063 165.355469 325.726563 C 169.09375 324.578125 164.636719 314.945313 161.328125 308.617188 C 160.996094 308.03125 160.375 307.664063 159.703125 307.664063 C 159.089844 307.664063 158.515625 307.96875 158.164063 308.472656 C 153.566406 314.800781 132.714844 317.964844 129.695313 318.246094 Z M 129.695313 318.246094 "/>
<path style=" stroke:none;fill-rule:evenodd;fill:rgb(36.473083%,31.37207%,61.914063%);fill-opacity:1;" d="M 171.105469 259.871094 C 171.105469 259.835938 171.105469 259.789063 171.105469 259.753906 C 171.105469 255.363281 172.691406 251.113281 175.566406 247.796875 C 179.878906 242.90625 185.34375 241.902344 191.523438 240.894531 L 200.871094 239.601563 C 209.355469 238.59375 217.980469 237.441406 226.753906 237.15625 C 226.945313 237.144531 227.140625 237.140625 227.335938 237.140625 C 228.355469 237.140625 229.371094 237.289063 230.347656 237.585938 C 232.335938 238.554688 233.804688 240.339844 234.371094 242.476563 C 235.628906 246.128906 236.269531 249.972656 236.269531 253.835938 C 236.269531 254.316406 236.257813 254.800781 236.242188 255.273438 C 236.246094 255.492188 236.246094 255.71875 236.246094 255.9375 C 236.246094 261.40625 235.707031 266.871094 234.664063 272.242188 C 234.460938 273.078125 234.167969 273.90625 233.796875 274.683594 C 232.214844 277.414063 228.332031 277.703125 225.601563 278.136719 C 218.847656 278.96875 212 279.394531 205.195313 279.394531 C 200.738281 279.394531 196.242188 279.191406 191.804688 278.847656 C 188.523438 278.746094 185.265625 278.113281 182.175781 276.984375 C 175.476563 274.246094 171.097656 267.722656 171.097656 260.480469 C 171.097656 260.28125 171.101563 260.074219 171.105469 259.871094 Z M 171.105469 259.871094 "/>
<path style=" stroke:none;fill-rule:evenodd;fill:rgb(96.875%,86.71875%,76.951599%);fill-opacity:1;" d="M 94.898438 360.664063 C 96.191406 355.347656 102.230469 347.871094 105.828125 343.988281 C 115.460938 333.492188 129.550781 328.746094 142.636719 323.714844 C 157.398438 318.105469 172.636719 313.507813 188.066406 310.199219 C 195.816406 308.402344 203.734375 307.117188 211.65625 306.453125 C 217.695313 306.027344 227.328125 304.15625 232.070313 308.902344 C 234.398438 311.589844 236.167969 314.722656 237.25 318.105469 C 239.640625 323.902344 241.742188 329.902344 243.425781 335.9375 C 244.480469 339.277344 245.015625 342.769531 245.015625 346.273438 C 245.015625 347.765625 244.914063 349.265625 244.726563 350.746094 C 243.144531 359.085938 236.53125 365.699219 229.339844 370.011719 C 215.679688 378.203125 200.007813 382.523438 185.628906 389.136719 C 179.878906 391.722656 174.269531 394.742188 169.957031 399.199219 C 167.800781 401.359375 166.21875 403.800781 163.917969 405.671875 C 159.046875 409.203125 153.242188 411.257813 147.238281 411.570313 C 135.734375 413.289063 123.367188 414.011719 113.015625 408.550781 C 96.046875 399.636719 91.015625 378.210938 94.898438 360.664063 Z M 94.898438 360.664063 "/>
<path style=" stroke:none;fill-rule:evenodd;fill:rgb(91.796875%,80.859375%,69.334412%);fill-opacity:1;" d="M 160.609375 406.679688 C 165.210938 404.664063 169.09375 399.203125 172.113281 395.464844 C 172.394531 395.0625 172.796875 394.757813 173.261719 394.601563 C 173.339844 394.585938 173.417969 394.578125 173.496094 394.578125 C 173.855469 394.578125 174.195313 394.746094 174.414063 395.03125 C 177.863281 397.191406 169.238281 404.089844 169.957031 408.261719 C 170.015625 408.6875 170.046875 409.117188 170.046875 409.550781 C 170.046875 410.425781 169.917969 411.304688 169.667969 412.144531 C 169.09375 413.4375 166.9375 412.863281 165.644531 413.007813 C 155.578125 414.585938 159.890625 409.410156 150.113281 411.136719 C 154.285156 409.121094 156.871094 408.40625 160.609375 406.679688 Z M 237.390625 362.394531 C 232.933594 362.96875 177.863281 384.394531 170.097656 386.980469 C 162.335938 389.570313 149.683594 394.746094 136.886719 394.746094 C 124.085938 394.746094 121.066406 395.609375 117.617188 399.921875 L 114.023438 403.949219 C 116.421875 406.472656 119.25 408.574219 122.363281 410.132813 C 132.714844 415.59375 145.082031 414.871094 156.585938 413.152344 C 162.480469 412.433594 168.664063 411.136719 173.265625 407.257813 C 175.566406 405.386719 177.148438 402.941406 179.304688 400.785156 C 183.617188 396.328125 189.226563 393.308594 194.976563 390.71875 C 209.355469 384.105469 225.027344 379.789063 238.6875 371.597656 C 243.089844 369.078125 246.917969 365.636719 249.898438 361.53125 Z M 237.390625 362.394531 "/>
<path style=" stroke:none;fill-rule:evenodd;fill:rgb(25.488281%,26.268005%,60.351563%);fill-opacity:1;" d="M 191.09375 327.453125 C 195.261719 322.132813 203.457031 319.402344 209.640625 317.675781 C 215.824219 315.949219 224.304688 314.800781 231.640625 313.21875 C 234.226563 312.644531 239.261719 311.203125 241.992188 311.636719 C 244.722656 312.070313 247.023438 315.808594 249.324219 319.113281 C 251.625 322.421875 253.785156 330.039063 254.359375 335.789063 C 254.425781 336.277344 254.460938 336.769531 254.460938 337.261719 C 254.460938 338.789063 254.128906 340.300781 253.496094 341.6875 C 252.316406 343.347656 250.730469 344.6875 248.894531 345.570313 C 245.160156 347.53125 241.246094 349.238281 237.25 350.605469 C 231 352.691406 224.578125 354.4375 218.117188 355.789063 C 210.640625 357.511719 201.582031 359.953125 194.964844 354.636719 C 191.945313 352.023438 189.867188 348.476563 189.078125 344.5625 C 187.929688 339.675781 187.640625 332.914063 190.375 328.460938 Z M 191.09375 327.453125 "/>
<path style=" stroke:none;fill-rule:evenodd;fill:rgb(96.875%,86.71875%,76.951599%);fill-opacity:1;" d="M 236.671875 409.269531 C 233.808594 407.703125 230.691406 406.632813 227.472656 406.101563 C 220.488281 404.890625 213.351563 404.261719 206.242188 404.261719 C 194.148438 404.261719 182.097656 406.046875 170.527344 409.550781 C 154.566406 414.289063 126.097656 424.359375 124.371094 443.769531 C 124.324219 444.539063 124.292969 445.316406 124.292969 446.085938 C 124.292969 452.828125 126.382813 459.40625 130.269531 464.914063 C 135.734375 473.398438 145.082031 482.023438 155.722656 482.453125 C 164.0625 482.742188 171.679688 479.578125 179.300781 476.992188 C 186.921875 474.40625 194.257813 473.6875 201.445313 470.953125 C 216.847656 465.679688 230.046875 455.324219 238.832031 441.621094 C 242.175781 436.574219 244.066406 430.699219 244.292969 424.652344 C 244.4375 418.757813 241.703125 412.433594 236.671875 409.269531 Z M 236.671875 409.269531 "/>
<path style=" stroke:none;fill-rule:evenodd;fill:rgb(91.796875%,80.859375%,69.334412%);fill-opacity:1;" d="M 207.628906 459.882813 C 194.6875 464.195313 183.617188 465.488281 171.96875 468.796875 C 160.320313 472.101563 148.242188 459.59375 141.199219 476.847656 C 145.363281 480.121094 150.433594 482.085938 155.71875 482.453125 C 164.058594 482.742188 171.679688 479.578125 179.300781 476.992188 C 186.921875 474.402344 194.253906 473.683594 201.445313 470.953125 C 214.386719 466.203125 226.320313 458.441406 234.660156 447.515625 C 224.164063 452.546875 214.097656 457.722656 207.628906 459.878906 Z M 207.628906 459.882813 "/>
<path style=" stroke:none;fill-rule:evenodd;fill:rgb(0%,36.083984%,62.304688%);fill-opacity:1;" d="M 190.660156 436.871094 C 193.25 443.632813 200.582031 447.515625 207.339844 448.523438 C 209.1875 448.746094 211.0625 448.867188 212.925781 448.867188 C 215.726563 448.867188 218.535156 448.601563 221.285156 448.089844 C 226.894531 447.078125 232.5 445.789063 237.964844 444.351563 C 241.578125 443.679688 244.925781 441.976563 247.601563 439.460938 C 248.503906 438.390625 249.238281 437.171875 249.757813 435.867188 C 251.628906 431.554688 250.910156 426.808594 249.757813 422.496094 C 248.609375 418.183594 246.59375 412.574219 241.5625 411.28125 C 240.265625 410.996094 238.9375 410.851563 237.609375 410.851563 C 236.28125 410.851563 234.949219 410.996094 233.652344 411.28125 C 226.03125 412.429688 218.699219 415.164063 211.078125 416.601563 C 206.476563 417.605469 201.730469 418.46875 197.707031 420.914063 C 193.679688 423.359375 190.085938 427.382813 189.796875 431.984375 C 189.796875 432.003906 189.796875 432.027344 189.796875 432.046875 C 189.796875 433.691406 190.09375 435.328125 190.660156 436.871094 Z M 190.660156 436.871094 "/>
</g>
</svg>
