<?xml version="1.0" encoding="iso-8859-1"?>
<!-- Uploaded to: SVG Repo, www.svgrepo.com, Generator: SVG Repo Mixer Tools -->
<svg height="800px" width="800px" version="1.1" id="Layer_1" xmlns="http://www.w3.org/2000/svg" xmlns:xlink="http://www.w3.org/1999/xlink" 
	 viewBox="0 0 512 512" xml:space="preserve">
<g>
	<polygon style="fill:#CCA400;" points="338.916,259.332 297.811,282.771 215.434,282.771 174.329,259.332 236.288,211.056 
		309.961,215.958 	"/>
	<polygon style="fill:#CCA400;" points="388.314,103.648 337.746,222.289 175.023,229.66 123.688,103.821 	"/>
</g>
<path style="fill:#FFD422;" d="M300.439,242.77l-11.848,128.864c-0.6,6.688,4.668,12.45,11.383,12.45l0,0
	c7.587,0,13.795,6.208,13.795,13.795v26.783c0,7.587-6.208,13.795-13.795,13.795h-87.944c-7.587,0-13.795-6.208-13.795-13.795
	V397.88c0-7.587,6.208-13.795,13.795-13.795l0,0c6.715,0,11.984-5.762,11.383-12.45l-1.916-21.346l-4.18-46.556l-5.459-60.8
	l20.033-41.591h60.805L300.439,242.77z"/>
<path style="fill:#CCA400;" d="M331.972,504.396h-151.94c-6.579,0-11.913-5.334-11.913-11.913V450.37
	c0-6.579,5.334-11.913,11.913-11.913h151.94c6.579,0,11.913,5.334,11.913,11.913v42.113
	C343.885,499.062,338.551,504.396,331.972,504.396z"/>
<path style="opacity:0.17;fill:#663A00;enable-background:new    ;" d="M331.972,504.396h-151.94
	c-6.579,0-11.913-5.334-11.913-11.913v-21.057h175.766v21.057C343.885,499.062,338.551,504.396,331.972,504.396z"/>
<polygon style="opacity:0.48;fill:#CCA400;enable-background:new    ;" points="312.267,253.856 256.624,269.709 204.667,253.856 
	204.667,219.224 312.267,219.224 "/>
<polygon style="fill:#FFCD00;" points="236.104,39.196 255.938,7.604 302.879,82.154 388.314,103.648 331.918,171.328 
	337.878,259.225 256.082,226.503 174.329,259.332 180.173,171.429 123.688,103.821 209.096,82.216 "/>
<g style="opacity:0.28;">
	<path style="fill:#FFFFFF;" d="M334.405,89.958l-31.527-7.931l-46.94-74.55l-19.834,31.593l-27.008,43.019l-85.408,21.606
		l56.485,67.606l-0.651,9.791C227.57,175.818,290.553,155.22,334.405,89.958z"/>
</g>
<g style="opacity:0.41;">
	<path style="fill:#CCA400;" d="M198.234,414.187v12.524c0,7.587,6.208,13.795,13.795,13.795h87.944
		c7.587,0,13.795-6.208,13.795-13.795v-12.524H198.234z"/>
</g>
<path d="M395.31,106.63c0.065-0.153,0.116-0.307,0.169-0.462c0.024-0.07,0.054-0.137,0.076-0.208
	c0.091-0.284,0.165-0.57,0.221-0.858c0.007-0.033,0.009-0.069,0.015-0.102c0.047-0.257,0.079-0.514,0.098-0.771
	c0.006-0.074,0.008-0.149,0.011-0.223c0.01-0.226,0.011-0.452,0.002-0.676c-0.003-0.076-0.005-0.152-0.01-0.229
	c-0.02-0.276-0.053-0.55-0.101-0.819c-0.003-0.018-0.004-0.037-0.008-0.055c-0.055-0.286-0.13-0.568-0.217-0.846
	c-0.009-0.029-0.013-0.059-0.022-0.088c-0.018-0.056-0.046-0.107-0.065-0.162c-0.07-0.198-0.147-0.392-0.232-0.585
	c-0.039-0.086-0.076-0.172-0.118-0.257c-0.112-0.227-0.234-0.449-0.369-0.665c-0.018-0.028-0.032-0.06-0.051-0.088
	c-0.157-0.245-0.332-0.48-0.517-0.707c-0.043-0.053-0.089-0.101-0.133-0.152c-0.149-0.172-0.306-0.339-0.47-0.498
	c-0.057-0.055-0.115-0.11-0.173-0.162c-0.17-0.155-0.35-0.301-0.536-0.441c-0.052-0.039-0.101-0.08-0.154-0.119
	c-0.239-0.17-0.487-0.329-0.749-0.473c-0.031-0.017-0.066-0.031-0.098-0.048c-0.19-0.1-0.382-0.199-0.583-0.284
	c-0.038-0.016-0.075-0.026-0.113-0.042c-0.089-0.036-0.181-0.067-0.273-0.1c-0.2-0.073-0.399-0.138-0.6-0.193
	c-0.048-0.013-0.092-0.032-0.14-0.045l-78.508-19.751l11.208-8.248c3.382-2.489,4.107-7.249,1.618-10.631
	c-2.491-3.382-7.25-4.105-10.631-1.617l-12.603,9.275l-38.88-61.748C260.981,1.341,258.551,0,255.938,0c-0.001,0-0.003,0-0.005,0
	c-2.615,0.001-5.045,1.346-6.435,3.561l-19.834,31.592c-2.233,3.557-1.16,8.25,2.397,10.483s8.251,1.16,10.483-2.397l13.403-21.35
	l33.025,52.449l-99.84,73.474c-3.382,2.489-4.106,7.249-1.617,10.631c1.49,2.026,3.795,3.097,6.13,3.097
	c1.564,0,3.144-0.482,4.501-1.48l99.036-72.882c1.01,1.145,2.343,1.972,3.842,2.349l73.707,18.544l-48.653,58.389
	c-1.252,1.503-1.878,3.431-1.745,5.383l5.139,75.83l-70.566-28.23c-1.817-0.727-3.843-0.724-5.658,0.003l-70.529,28.323
	l1.748-26.285l127.633-95.257c3.365-2.512,4.057-7.276,1.545-10.643c-2.511-3.365-7.276-4.057-10.643-1.545l-117.206,87.478
	l1.967-29.583c0.13-1.952-0.498-3.879-1.752-5.38l-48.73-58.325l73.682-18.64c4.072-1.03,6.536-5.166,5.507-9.236
	c-1.03-4.071-5.164-6.539-9.236-5.507l-85.407,21.606c-2.535,0.641-4.562,2.54-5.368,5.027c-0.654,2.018-0.417,4.187,0.587,6.008
	c0.082,0.305,0.176,0.609,0.299,0.909l45.099,110.552l-17.789,13.278c-3.366,2.512-4.057,7.276-1.545,10.643
	c1.493,2,3.781,3.057,6.099,3.057c1.582,0,3.177-0.492,4.542-1.511l14.683-10.958l-1.687,25.375c-0.002,0.036,0.002,0.072,0,0.107
	c-0.013,0.25-0.014,0.501-0.002,0.75c0.002,0.05,0.001,0.099,0.004,0.148c0.019,0.291,0.056,0.581,0.108,0.867
	c0.012,0.068,0.03,0.134,0.045,0.201c0.046,0.217,0.1,0.432,0.165,0.644c0.026,0.087,0.055,0.173,0.084,0.26
	c0.072,0.208,0.153,0.413,0.242,0.613c0.028,0.063,0.053,0.128,0.083,0.191c0.127,0.265,0.267,0.524,0.424,0.775
	c0.009,0.015,0.021,0.029,0.03,0.044c0.147,0.231,0.31,0.452,0.483,0.668c0.045,0.055,0.091,0.108,0.137,0.162
	c0.15,0.176,0.308,0.346,0.475,0.509c0.053,0.052,0.104,0.103,0.158,0.153c0.199,0.184,0.409,0.358,0.63,0.521
	c0.019,0.014,0.034,0.03,0.054,0.045c0.003,0.002,0.007,0.004,0.011,0.006c0.219,0.158,0.447,0.307,0.687,0.444l37.654,21.471
	l1.527,17.003c0.355,3.952,3.672,6.925,7.564,6.925c0.228,0,0.458-0.01,0.688-0.031c4.183-0.375,7.269-4.071,6.893-8.253
	l-4.838-53.887l36.036-14.471l35.874,14.351l-10.944,121.907c-0.478,5.309,1.312,10.61,4.908,14.545
	c3.597,3.934,8.717,6.191,14.047,6.191c3.414,0,6.191,2.777,6.191,6.191v26.783c0,3.414-2.777,6.191-6.191,6.191h-87.945
	c-3.414,0-6.191-2.777-6.191-6.191v-26.783c0-3.414,2.777-6.191,6.191-6.191c5.33,0,10.45-2.257,14.047-6.19
	c3.596-3.934,5.386-9.235,4.909-14.544l-1.917-21.345c-0.375-4.183-4.076-7.268-8.253-6.893c-4.183,0.375-7.269,4.071-6.894,8.253
	l1.917,21.345c0.131,1.461-0.562,2.459-0.986,2.923c-0.425,0.464-1.357,1.244-2.823,1.244c-11.799,0-21.399,9.599-21.399,21.399
	v26.783c0,2.153,0.326,4.23,0.921,6.191h-23.432c-4.199,0-7.604,3.405-7.604,7.604v65.939c0,4.199,3.405,7.604,7.604,7.604h175.765
	c4.2,0,7.604-3.405,7.604-7.604v-65.939c0-4.199-3.404-7.604-7.604-7.604h-23.432c0.594-1.962,0.922-4.038,0.922-6.191V397.88
	c0-11.799-9.6-21.399-21.399-21.399c-1.466,0-2.398-0.78-2.823-1.244c-0.425-0.464-1.117-1.462-0.986-2.923l7.555-84.159
	l38.963-22.217c3.649-2.08,4.92-6.724,2.84-10.372c-0.094-0.165-0.2-0.319-0.304-0.475l-1.876-27.672
	c0.568-0.618,1.051-1.331,1.399-2.147L395.31,106.63z M170.721,198.982l-21.53-52.778l23.193,27.761L170.721,198.982z
	 M206.56,268.957l-14.79-8.434l13.545-5.439L206.56,268.957z M336.28,496.792H175.723v-50.731h36.307h87.943h36.307v50.731H336.28z
	 M306.701,254.943l14.434,5.775l-15.76,8.987L306.701,254.943z M339.712,173.855l21.316-25.582l-19.888,46.66L339.712,173.855z"/>
</svg>