<svg id="visual" viewBox="0 0 960 150" width="960" height="150" xmlns="http://www.w3.org/2000/svg" xmlns:xlink="http://www.w3.org/1999/xlink" version="1.1"><rect x="0" y="0" width="960" height="150" fill="#000000"></rect><path d="M0 70L5.5 75.7C11 81.3 22 92.7 33 96C44 99.3 55 94.7 66 85.7C77 76.7 88 63.3 99 56C110 48.7 121 47.3 132.2 56.7C143.3 66 154.7 86 165.8 87.5C177 89 188 72 199 66.3C210 60.7 221 66.3 232 68.5C243 70.7 254 69.3 265 66.8C276 64.3 287 60.7 298 65.8C309 71 320 85 331 83.3C342 81.7 353 64.3 364 60.3C375 56.3 386 65.7 397 75.8C408 86 419 97 430 102.5C441 108 452 108 463.2 101C474.3 94 485.7 80 496.8 77.7C508 75.3 519 84.7 530 82.8C541 81 552 68 563 70.3C574 72.7 585 90.3 596 91.8C607 93.3 618 78.7 629 75.2C640 71.7 651 79.3 662 87C673 94.7 684 102.3 695 97.2C706 92 717 74 728 64.3C739 54.7 750 53.3 761 50.3C772 47.3 783 42.7 794.2 52.3C805.3 62 816.7 86 827.8 97.8C839 109.7 850 109.3 861 101.8C872 94.3 883 79.7 894 70C905 60.3 916 55.7 927 61.8C938 68 949 85 954.5 93.5L960 102L960 0L954.5 0C949 0 938 0 927 0C916 0 905 0 894 0C883 0 872 0 861 0C850 0 839 0 827.8 0C816.7 0 805.3 0 794.2 0C783 0 772 0 761 0C750 0 739 0 728 0C717 0 706 0 695 0C684 0 673 0 662 0C651 0 640 0 629 0C618 0 607 0 596 0C585 0 574 0 563 0C552 0 541 0 530 0C519 0 508 0 496.8 0C485.7 0 474.3 0 463.2 0C452 0 441 0 430 0C419 0 408 0 397 0C386 0 375 0 364 0C353 0 342 0 331 0C320 0 309 0 298 0C287 0 276 0 265 0C254 0 243 0 232 0C221 0 210 0 199 0C188 0 177 0 165.8 0C154.7 0 143.3 0 132.2 0C121 0 110 0 99 0C88 0 77 0 66 0C55 0 44 0 33 0C22 0 11 0 5.5 0L0 0Z" fill="#4831d4" stroke-linecap="round" stroke-linejoin="miter"></path></svg>