<svg id="visual" viewBox="0 0 960 150" width="960" height="150" xmlns="http://www.w3.org/2000/svg" xmlns:xlink="http://www.w3.org/1999/xlink" version="1.1"><rect x="0" y="0" width="960" height="150" fill="#010606"></rect><path d="M0 78L5.5 72.3C11 66.7 22 55.3 33 52C44 48.7 55 53.3 66 62.3C77 71.3 88 84.7 99 92C110 99.3 121 100.7 132.2 91.3C143.3 82 154.7 62 165.8 60.5C177 59 188 76 199 81.7C210 87.3 221 81.7 232 79.5C243 77.3 254 78.7 265 81.2C276 83.7 287 87.3 298 82.2C309 77 320 63 331 64.7C342 66.3 353 83.7 364 87.7C375 91.7 386 82.3 397 72.2C408 62 419 51 430 45.5C441 40 452 40 463.2 47C474.3 54 485.7 68 496.8 70.3C508 72.7 519 63.3 530 65.2C541 67 552 80 563 77.7C574 75.3 585 57.7 596 56.2C607 54.7 618 69.3 629 72.8C640 76.3 651 68.7 662 61C673 53.3 684 45.7 695 50.8C706 56 717 74 728 83.7C739 93.3 750 94.7 761 97.7C772 100.7 783 105.3 794.2 95.7C805.3 86 816.7 62 827.8 50.2C839 38.3 850 38.7 861 46.2C872 53.7 883 68.3 894 78C905 87.7 916 92.3 927 86.2C938 80 949 63 954.5 54.5L960 46L960 151L954.5 151C949 151 938 151 927 151C916 151 905 151 894 151C883 151 872 151 861 151C850 151 839 151 827.8 151C816.7 151 805.3 151 794.2 151C783 151 772 151 761 151C750 151 739 151 728 151C717 151 706 151 695 151C684 151 673 151 662 151C651 151 640 151 629 151C618 151 607 151 596 151C585 151 574 151 563 151C552 151 541 151 530 151C519 151 508 151 496.8 151C485.7 151 474.3 151 463.2 151C452 151 441 151 430 151C419 151 408 151 397 151C386 151 375 151 364 151C353 151 342 151 331 151C320 151 309 151 298 151C287 151 276 151 265 151C254 151 243 151 232 151C221 151 210 151 199 151C188 151 177 151 165.8 151C154.7 151 143.3 151 132.2 151C121 151 110 151 99 151C88 151 77 151 66 151C55 151 44 151 33 151C22 151 11 151 5.5 151L0 151Z" fill="#4831d4" stroke-linecap="round" stroke-linejoin="miter"></path></svg>