<!DOCTYPE svg PUBLIC "-//W3C//DTD SVG 1.1//EN" "http://www.w3.org/Graphics/SVG/1.1/DTD/svg11.dtd">
<!-- Uploaded to: SVG Repo, www.svgrepo.com, Transformed by: SVG Repo Mixer Tools -->
<svg width="800px" height="800px" viewBox="0 0 24 24" id="meteor-icon-kit__solid-check-square" fill="none" xmlns="http://www.w3.org/2000/svg">
<g id="SVGRepo_bgCarrier" stroke-width="0"/>
<g id="SVGRepo_tracerCarrier" stroke-linecap="round" stroke-linejoin="round"/>
<g id="SVGRepo_iconCarrier">
<path fill-rule="evenodd" clip-rule="evenodd" d="M21 0H3C1.34315 0 0 1.34315 0 3V21C0 22.6569 1.34315 24 3 24H21C22.6569 24 24 22.6569 24 21V3C24 1.34315 22.6569 0 21 0ZM7.06066 10.9393L10 13.8787L16.9393 6.93934C17.5251 6.35355 18.4749 6.35355 19.0607 6.93934C19.6464 7.52513 19.6464 8.47487 19.0607 9.06066L11.0607 17.0607C10.4749 17.6464 9.52513 17.6464 8.93934 17.0607L4.93934 13.0607C4.35355 12.4749 4.35355 11.5251 4.93934 10.9393C5.52513 10.3536 6.47487 10.3536 7.06066 10.9393Z" fill="#2866b2"/>
</g>
</svg>