<svg width="96" height="120" viewBox="0 0 96 120" fill="none" xmlns="http://www.w3.org/2000/svg">
<path d="M33.184 30.332C32.976 30.332 32.764 30.296 32.552 30.232C30.3 29.468 28.304 28.22 26.608 26.532C20.604 20.532 20.604 10.768 26.608 4.748C32.612 -1.244 42.38 -1.244 48.38 4.748C54.38 10.756 54.38 20.516 48.38 26.532C47.616 27.288 46.372 27.288 45.608 26.532C44.844 25.776 44.844 24.52 45.608 23.764C50.08 19.276 50.08 12.008 45.608 7.52C41.132 3.048 33.852 3.048 29.376 7.52C24.9 12.008 24.9 19.276 29.376 23.764C30.64 25.016 32.136 25.96 33.812 26.524C34.836 26.872 35.384 27.984 35.04 29.008C34.764 29.816 34.004 30.332 33.184 30.332Z" fill="white"/>
<path d="M51.352 31.616C50.848 31.616 50.352 31.424 49.964 31.044C49.2 30.284 49.2 29.04 49.964 28.276C56.836 21.404 56.836 10.216 49.964 3.344C49.2 2.588 49.2 1.336 49.964 0.576003C50.728 -0.179997 51.972 -0.179997 52.736 0.576003C61.136 8.984 61.136 22.648 52.736 31.048C52.356 31.424 51.852 31.616 51.352 31.616Z" fill="white"/>
<path d="M23.644 31.616C23.144 31.616 22.64 31.424 22.256 31.044C13.844 22.64 13.844 8.972 22.256 0.572005C23.02 -0.183995 24.26 -0.183995 25.024 0.572005C25.788 1.332 25.788 2.584 25.024 3.34C18.152 10.212 18.152 21.4 25.024 28.272C25.788 29.036 25.788 30.28 25.024 31.04C24.644 31.424 24.144 31.616 23.644 31.616Z" fill="white"/>
<path d="M65.468 96.004H43.328C34.08 96.004 27.468 81.18 21.64 68.096C19.38 63.02 17.244 58.232 15.484 55.752C13.136 52.452 12.736 46.532 15.732 43.536C18.672 40.608 23.54 40.512 26.4 43.352L31.456 48.84V16.916C31.456 12.772 35.044 9.28 39.292 9.28C43.616 9.28 47.128 12.668 47.128 16.844V33.812C48.28 33.168 49.624 32.8 51.044 32.8C54.42 32.8 57.372 35.004 58.452 37.992C59.696 37.18 61.2 36.712 62.8 36.712C66.176 36.712 69.132 38.92 70.212 41.904C71.452 41.1 72.956 40.632 74.56 40.632C78.808 40.632 82.396 44.144 82.396 48.272V69.472C82.396 85.66 67.164 95.32 66.516 95.724C66.192 95.904 65.832 96.004 65.468 96.004ZM21.224 45.124C20.228 45.124 19.26 45.54 18.492 46.312C17.04 47.764 17.372 51.648 18.68 53.492C20.668 56.288 22.772 61.028 25.22 66.504C30.032 77.292 36.624 92.084 43.328 92.084H64.872C67.264 90.428 78.464 82.016 78.464 69.46V48.26C78.464 46.24 76.668 44.544 74.548 44.544C72.42 44.544 70.632 46.212 70.632 48.184C70.632 49.268 69.748 50.144 68.672 50.144C67.596 50.144 66.712 49.268 66.712 48.184V44.348C66.712 42.324 64.916 40.628 62.796 40.628C60.672 40.628 58.88 42.296 58.88 44.268C58.88 45.352 58 46.228 56.924 46.228C55.84 46.228 54.964 45.352 54.964 44.268V40.432C54.964 38.412 53.168 36.712 51.048 36.712C48.924 36.712 47.132 38.38 47.132 40.352C47.132 41.436 46.256 42.312 45.172 42.312C44.092 42.312 43.212 41.436 43.212 40.352V16.84C43.212 14.872 41.416 13.2 39.296 13.2C37.172 13.2 35.376 14.912 35.376 16.92V53.876C35.376 54.684 34.884 55.408 34.132 55.704C33.38 56 32.524 55.788 31.98 55.208L23.58 46.08C22.96 45.468 22.132 45.124 21.224 45.124Z" fill="white"/>
</svg>
