<svg xmlns="http://www.w3.org/2000/svg" viewBox="0 0 1069.71 1253.95"><defs><style>.cls-1,.cls-11,.cls-13,.cls-16,.cls-8{fill:none;}.cls-1,.cls-16,.cls-17,.cls-2,.cls-3{stroke:#6562cf;}.cls-1,.cls-11,.cls-14,.cls-2,.cls-3{stroke-linecap:round;}.cls-1,.cls-11,.cls-13,.cls-14,.cls-16,.cls-17,.cls-2,.cls-3{stroke-miterlimit:10;}.cls-1,.cls-11,.cls-14,.cls-16,.cls-2,.cls-3,.cls-8{stroke-width:5px;}.cls-14,.cls-2{fill:#fff;}.cls-3,.cls-6{fill:#eaeeff;}.cls-4{fill:#f1921b;}.cls-5{fill:#eb7200;}.cls-7{fill:#dbdaff;}.cls-8{stroke:#c7bfff;stroke-linejoin:round;}.cls-9{fill:#3f4d79;}.cls-10{fill:#ffb000;}.cls-11,.cls-14{stroke:#3f4d79;}.cls-12{fill:#3c4564;}.cls-13{stroke:#ffb000;stroke-width:4px;}.cls-15{fill:#c0c1ff;}.cls-17{fill:#d1d1ff;stroke-width:6px;}</style></defs><g id="Layer_2" data-name="Layer 2"><g id="Слой_1" data-name="Слой 1"><g id="_1" data-name="1"><g id="CHAIR"><path class="cls-1" d="M208.11,863.68H67.69A25.73,25.73,0,0,1,42.6,843.59L12,707.2a25.7,25.7,0,0,1,25.08-31.32"/><path class="cls-1" d="M467.11,863.68H326.69a25.73,25.73,0,0,1-25.09-20.09L271,707.2a25.7,25.7,0,0,1,25.08-31.32"/><path class="cls-2" d="M313.42,724H75.12a38.41,38.41,0,0,1-37.41-29.7L3.37,546.82a32.77,32.77,0,0,1,31.92-40.2H273.6a38.4,38.4,0,0,1,37.4,29.7l34.34,147.51A32.78,32.78,0,0,1,313.42,724Z"/><rect class="cls-3" x="75.11" y="829.66" width="416.21" height="34.02" rx="17.01"/><path class="cls-1" d="M46.69,1250.4,94.14,896.78c.91-18.55,15.53-33.1,33.26-33.1h82c17.73,0,32.35,14.55,33.27,33.1l47.45,353.62"/><path class="cls-1" d="M348.05,863.68h79.62c17.21,0,31.41,14.55,32.3,33.1l46.95,353.62"/></g><g id="MAN"><g id="RIGHT_HAND" data-name="RIGHT HAND"><path class="cls-4" d="M723.77,513.27c5.17,3.41,17.16,28.81,17.38,31.87s-13.55,25.8-13.55,25.8-5.47.12-6.51-12.39c-1.27-14.81-7.77-20.42-17.19-22.53-3.94-.88-11.18,2.12-11.69,7.92s14.47,9.65,17.48,13.17c4.57,5.32,2,12.82,2,13,0,0-23.12-7-27.56-8.3-4-1.19-21.86-17.43-33-33.53a115.51,115.51,0,0,1-13,8.25c-28,15.06-124,50.09-173.73,42.15-49.94-8-10.05-167-10.05-167,72.32,3.34,102.6-5.87,108.12-7.82l-11.23,73.5c30.39-.9,105.17,11.49,105.21,11.5C677.46,491.62,716.34,508.38,723.77,513.27Z"/><path class="cls-5" d="M454,411.61l.43,0c72.32,3.34,102.6-5.87,108.12-7.82l-2.65,18s-53.65,25.26-113.32,23Z"/></g><g id="T-SHIRT"><path class="cls-6" d="M461.25,612.59c17.18-1.26,48.32-201.18,48.32-201.18,38.35.56,84.72-17.33,84.72-17.33s-31.71-103.92-42.64-125.35S462.26,210.25,453,207.57l-152.94-35S169.51,205,128.34,238.28,55,411.94,55,411.94c75.61,30.49,154,26,154,26L182.35,598.57c-8.63,39-36.2,162.82,12.41,222.94C194.76,821.51,233.87,629.29,461.25,612.59Z"/><path class="cls-7" d="M360.74,224,315,251.91l-58-67.44,43.54-26.08a11.15,11.15,0,0,1,15.36,4Z"/><path class="cls-7" d="M430.3,230.4l32.19,19-1.55-38.62L453,207.57S438.86,217.05,430.3,230.4Z"/><path class="cls-8" d="M209,437.92c6.2-20.31,12.4-69.37,12.4-69.37"/><path class="cls-8" d="M315,251.91l44.88-26.21s43.06,51.23,44.26,60.19,3.46,100.33,3.46,100.33H430.3"/><path class="cls-8" d="M461.64,249.36,431.15,232.1s-27.65,43.74-27,53.79"/><path class="cls-8" d="M213.87,417.74s-96.64,2.87-153.44-27.39"/></g><g id="LEFT_HAND" data-name="LEFT HAND"><path class="cls-4" d="M503,576c0,4.59-47.14,2.92-53.78,2.92s-48.23,1.58-58,0c-53.11,4.37-290,21.59-317.55-16.7-31.89-44.34-3.4-144.64-3.4-144.64C141.82,442.43,209,437.91,209,437.91L203.13,476c56.79,7,159.27,43,194.11,55.61,7.47-2.39,35.91-11,50.31-7.72,16.66,3.75,36.67,18.75,38.75,22.92S503,571.42,503,576Z"/><path class="cls-5" d="M449.19,578.92c6.64,0,53.78,1.67,53.78-2.91s-14.59-25-16.67-29.17-22.08-19.17-38.75-22.92c0,0,20.57,28.57,1.64,55"/><path class="cls-5" d="M70.23,417.61S143.46,443.37,209,437.92L203.13,476s-87.46-14-136-45.68Z"/></g><g id="LEGS"><g id="RIGHT"><g id="SHOES"><path class="cls-9" d="M703.79,1254H541.86c-.16-2.47-.22-4.83-.17-7.1H704A34.1,34.1,0,0,1,703.79,1254Z"/><path class="cls-10" d="M558.36,1181.5c.58,17.66-16.49,28.85-16.49,65.35H703.79s2.35-30.62-30-37.68-61.83-16.49-64.77-27.67Z"/><line class="cls-11" x1="610.13" y1="1214.49" x2="624.91" y2="1192.61"/><line class="cls-11" x1="621.66" y1="1217.15" x2="635.56" y2="1197.05"/><line class="cls-11" x1="636.74" y1="1218.04" x2="647.98" y2="1199.71"/></g><g id="PANT"><path class="cls-12" d="M384.22,626.74s247.14-15.46,307.2,55.2-56.52,322.66-68.3,475.75c0,0-59.14,5.89-83.15,0s-44.91-267.62,15.59-339.46c0,0-230,52.91-319.69-13.82S346.91,628,384.22,626.74Z"/></g><path id="LEG" class="cls-4" d="M609,1181.5a79.06,79.06,0,0,1-50.63,0l-4.79-21.84s31.46,1.59,60.2-1.16Z"/></g><g id="LEFT"><g id="SHOE"><path class="cls-9" d="M1069.71,1008.8l-128.45,98.59q-2.73-3.33-4.93-6.51l127.94-98.2A35.88,35.88,0,0,1,1069.71,1008.8Z"/><path class="cls-10" d="M909.23,1039.29c11.22,13.66,4.48,32.93,26.71,61.89l128.45-98.59s-16.78-25.72-46.77-11.61-59.08,24.57-68.23,17.48Z"/><line class="cls-11" x1="970.72" y1="1032.38" x2="969.13" y2="1006.89"/><line class="cls-11" x1="980.48" y1="1026.17" x2="978.89" y2="1003.34"/><line class="cls-11" x1="990.24" y1="1019.96" x2="988.65" y2="999.79"/></g><g id="PANT-2" data-name="PANT"><path class="cls-9" d="M194.76,811.51c3.7,19.94,214,68.26,437.78-73,0,0,14.71,170.4,240.82,294,0,0,49.2-17.76,71.31-56.79,0,0-147.5-172.49-204.29-330.89-23.84-66.51-323.89-31.69-367.76-18.09S178.27,722.64,194.76,811.51Z"/></g><path id="LEG-2" data-name="LEG" class="cls-4" d="M949.39,1008.46s-9.69,29.84-40.16,30.83l-19.86-14.08a153.38,153.38,0,0,0,47-37.17Z"/></g></g><g id="HEAD"><g id="NECK"><path class="cls-4" d="M388,117.6s-9.35,24.58-70,48c0,0,42.68,58.42,86.09,113.31,0,0,17.4-50.43,48.85-71.32Z"/><path class="cls-5" d="M453,207.57c-9.27,6.33-17.08,14.88-23.54,24-20-15-42.49-41.33-49.15-60.43-3.29-9.45,5.42-35,10.47-49.76Z"/></g><path id="HEAD-2" data-name="HEAD" class="cls-4" d="M386.78,122.4c0,8-6.95,32.63,1.46,42.51,15.38,18.07,59.44,47,81.11,45.79,15.44-.83,37.31-67.81,40.57-77.82S527.26,82.73,517.26,72s-93.59-34.21-110.2.37C388.65,110.7,386.78,122.4,386.78,122.4Z"/><g id="HAIR"><path class="cls-10" d="M551.65,48.72c-8.21,53.71-43.19,60.73-112.1,20.39-31.57-18.47-9.25,14.61-27,43.33l-5.8,2.16c.19-2.89.6-14.83-5.34-14.86-8.75,0-11.44,13.24-12.28,21.41l-3.36,1.25s-.36-59.87,8.13-78.9c21-47.11,81.7-21.66,96.59-13.65C537.47,55.1,551.65,48.72,551.65,48.72Z"/><path class="cls-13" d="M438,65c49,38.68,87.5,47.85,106.62,25.11"/></g><g id="HEADPHONES"><rect class="cls-14" x="367.54" y="81.56" width="44.26" height="54.1" rx="22.08" transform="translate(44.6 -102.49) rotate(15.88)"/><path class="cls-14" d="M413.14,107l-4.38,15.4a19.06,19.06,0,0,1-23.54,13.11l-5.92-1.69c-.26-.07-.51-.15-.77-.24a19,19,0,0,0,22.76-13.31l4.38-15.4a19,19,0,0,0-12.34-23.29l.78.2L400,83.44A19,19,0,0,1,413.14,107Z"/><path class="cls-11" d="M394.11,81.75l18-63.2a22.08,22.08,0,0,1,27.28-15.2l64,18.2c7.92,2.25,11.52,8.5,9.26,16.43"/></g></g></g><g id="LAPTOP"><path class="cls-6" d="M693.12,581.44H412.53c-12.81,0-20.93-12.81-14.75-23.27l95-160.67c8.26-14,24-22.66,41.16-22.66H814.54c12.81,0,20.93,12.81,14.75,23.27l-95,160.67C726,572.76,710.24,581.44,693.12,581.44Z"/><path class="cls-15" d="M690.37,586.6H421.3c-12.55,0-20.5-12.55-14.44-22.8l93.07-157.41c8.1-13.7,23.55-22.2,40.33-22.2H809.33c12.55,0,20.5,12.55,14.44,22.8L730.7,564.39C722.6,578.09,707.15,586.6,690.37,586.6Z"/><path class="cls-16" d="M693.12,581.44H412.53c-12.81,0-20.93-12.81-14.75-23.27l95-160.67c8.26-14,24-22.66,41.16-22.66H814.54c12.81,0,20.93,12.81,14.75,23.27l-95,160.67C726,572.76,710.24,581.44,693.12,581.44Z"/><rect class="cls-17" x="174.75" y="581.65" width="531.93" height="21.72" rx="9.78"/></g></g></g></g></svg>