<svg width="128" height="78" viewBox="0 0 128 78" fill="none" xmlns="http://www.w3.org/2000/svg">
<path d="M30.2 20.9H54.3V22.8H32.4V37.2H53V39.1H32.4V54.9H54.6V56.8H30.2V20.9ZM56.5 20.9H59.1L70.5 36.7L82 20.9L97.8 0.900024L71.8 38.4L85.2 56.8H82.5L70.4 40L58.2 56.8H55.6L69.1 38.4L56.5 20.9V20.9ZM86.2 22.8V20.9H113.7V22.8H101V56.8H98.8V22.8H86.2ZM0 20.9H2.7L40.9 77.7L25.1 56.8L2.3 23.6L2.2 56.8H0V20.9ZM113.5 54.3C114 54.3 114.3 54 114.3 53.5C114.3 53 114 52.7 113.5 52.7C113 52.7 112.7 53 112.7 53.5C112.7 54 113.1 54.3 113.5 54.3ZM115.7 52.2C115.7 53.5 116.7 54.4 118.1 54.4C119.6 54.4 120.5 53.5 120.5 51.9V46.4H119.3V51.9C119.3 52.8 118.9 53.2 118.1 53.2C117.4 53.2 116.9 52.8 116.9 52.1H115.7V52.2ZM122 52.1C122.1 53.5 123.2 54.4 125 54.4C126.8 54.4 128 53.5 128 52C128 50.8 127.3 50.2 125.8 49.8L124.9 49.6C123.9 49.4 123.5 49 123.5 48.5C123.5 47.8 124.1 47.3 125.1 47.3C126 47.3 126.6 47.7 126.7 48.5H127.9C127.8 47.2 126.7 46.3 125.1 46.3C123.4 46.3 122.3 47.2 122.3 48.6C122.3 49.7 122.9 50.4 124.3 50.7L125.3 50.9C126.3 51.1 126.8 51.5 126.8 52.1C126.8 52.8 126.1 53.3 125.1 53.3C124.1 53.3 123.3 52.8 123.2 52.1H122V52.1Z" fill="#2BFF88"/>
</svg>
