<svg width="150" height="149" viewBox="0 0 150 149" fill="none" xmlns="http://www.w3.org/2000/svg">
<ellipse cx="75" cy="74.5" rx="75" ry="74.5" fill="#2BFF88"/>
<path d="M127.652 40.0325L82.3191 14.1986C79.4601 12.6005 75.7376 12.6005 72.856 14.1986L27.0384 40.0325C24.0879 41.6983 22 44.829 22 48.1777V99.7769C22 103.126 24.1424 106.257 27.0929 107.932L39.198 114.68C44.9838 117.477 47.0286 117.477 49.6614 117.477C58.228 117.477 63.1215 112.393 63.1215 103.525V52.5837C63.1215 51.8644 62.7401 50.7939 62.0205 50.7939H56.2398C55.5079 50.7939 53.8692 51.8644 53.8692 52.5827V103.524C53.8692 107.455 50.2464 111.367 43.4757 108.044L30.9676 100.968C30.5317 100.736 30.2243 100.269 30.2243 99.7769V48.1777C30.2243 47.6914 30.7949 47.2031 31.2338 46.9539L76.9034 21.1643C77.33 20.9272 77.9571 20.9272 78.3827 21.1643L123.495 46.9478C123.927 47.2031 123.775 47.6763 123.775 48.1777V99.7769C123.775 100.269 123.963 100.749 123.536 100.986L78.2141 126.79C77.8255 127.019 77.3434 127.019 76.9178 126.79L65.2937 119.981C64.9432 119.781 64.5268 119.71 64.1907 119.894C60.9565 121.693 60.3602 121.932 57.3264 122.964C56.5801 123.22 55.4791 123.663 57.7479 124.911L72.9608 133.743C74.4132 134.566 76.0609 135 77.7381 135C79.4262 135 81.0793 134.57 82.536 133.743L127.651 107.932C130.602 106.245 132 103.126 132 99.7769V48.1777C132 44.829 130.602 41.7064 127.652 40.0325V40.0325ZM91.814 91.6005C79.7593 91.6005 77.1038 88.3365 76.2187 82.4534C76.1159 81.8198 75.5679 81.0621 74.911 81.0621H69.0193C68.2905 81.0621 67.7045 81.9298 67.7045 82.6421C67.7045 90.1748 71.8773 99.3017 91.8151 99.3017C106.248 99.3017 114.522 93.7979 114.522 84.0576C114.522 74.4 107.874 71.8656 93.8773 70.0475C79.7294 68.2122 78.2922 67.285 78.2922 64.0322C78.2922 61.3504 79.5094 57.7737 89.9851 57.7737C99.3454 57.7737 102.796 59.7452 104.215 65.9371C104.337 66.5192 104.878 66.9369 105.49 66.9369H111.405C111.769 66.9369 112.117 66.7926 112.372 66.5374C112.618 66.2629 112.749 65.9189 112.716 65.5496C111.8 54.8871 104.582 49.9181 89.9841 49.9181C76.999 49.9181 69.2527 55.2998 69.2527 64.3207C69.2527 74.1054 76.9599 76.8094 89.4249 78.0191C104.337 79.4538 105.496 81.5928 105.496 84.4713C105.496 89.4706 101.407 91.6005 91.814 91.6005Z" fill="#4831D4"/>
</svg>
