<svg width="150" height="149" viewBox="0 0 150 149" fill="none" xmlns="http://www.w3.org/2000/svg">
<ellipse cx="75" cy="74.5" rx="75" ry="74.5" fill="#2BFF88"/>
<path d="M74.6 85.3C80.896 85.3 86 80.196 86 73.9C86 67.604 80.896 62.5 74.6 62.5C68.304 62.5 63.2 67.604 63.2 73.9C63.2 80.196 68.304 85.3 74.6 85.3Z" fill="#4831D4"/>
<path d="M117.9 55.1C115.7 54.3 113.4 53.5 111 52.8C111.6 50.4 112.1 48 112.5 45.7C114.6 32.5 112.3 23.2 105.9 19.6C104 18.5 101.9 18 99.5 18C92.5 18 83.6 23.2 74.6 31.9C65.6 23.2 56.7 18 49.7 18C47.3 18 45.2 18.5 43.3 19.6C36.9 23.3 34.6 32.6 36.7 45.7C37.1 48 37.6 50.4 38.2 52.8C35.8 53.5 33.5 54.2 31.3 55.1C18.8 59.9 12 66.5 12 73.9C12 81.3 18.9 87.9 31.3 92.7C33.5 93.5 35.8 94.3 38.2 95C37.6 97.4 37.1 99.8 36.7 102.1C34.6 115.3 36.9 124.6 43.3 128.2C45.2 129.3 47.3 129.8 49.7 129.8C56.8 129.8 65.7 124.6 74.6 115.9C83.6 124.6 92.5 129.8 99.5 129.8C101.9 129.8 104 129.3 105.9 128.2C112.3 124.5 114.6 115.2 112.5 102.1C112.1 99.8 111.6 97.4 111 95C113.4 94.3 115.7 93.6 117.9 92.7C130.4 87.9 137.2 81.3 137.2 73.9C137.2 66.5 130.4 59.9 117.9 55.1V55.1ZM103.1 24.6C107.2 27 108.6 34.4 106.9 44.9C106.6 47 106.1 49.2 105.5 51.5C100.3 50.3 94.8 49.5 89 49C85.6 44.2 82.1 39.9 78.6 36C86 28.7 93.5 23.7 99.6 23.7C100.9 23.7 102.1 24 103.1 24.6V24.6ZM91.9 83.9C90.1 87.1 88 90.3 85.8 93.5C82.1 93.8 78.4 93.9 74.6 93.9C70.7 93.9 67 93.8 63.4 93.5C61.2 90.3 59.2 87.1 57.4 83.9C55.5 80.6 53.7 77.2 52.1 73.9C53.7 70.6 55.5 67.2 57.4 63.9C59.2 60.7 61.3 57.5 63.5 54.3C67.2 54 70.9 53.9 74.7 53.9C78.6 53.9 82.3 54 85.9 54.3C88.1 57.5 90.1 60.7 91.9 63.9C93.8 67.2 95.6 70.6 97.2 73.9C95.5 77.2 93.8 80.5 91.9 83.9ZM100.2 80.6C101.7 84.1 102.9 87.5 104 90.9C100.6 91.7 97 92.3 93.2 92.8C94.4 90.9 95.7 88.9 96.8 86.8C98 84.7 99.1 82.6 100.2 80.6ZM74.6 107.7C72.2 105.1 69.9 102.3 67.7 99.4C70 99.5 72.3 99.6 74.6 99.6C76.9 99.6 79.2 99.5 81.5 99.4C79.3 102.3 77 105.1 74.6 107.7ZM56 92.7C52.2 92.2 48.6 91.6 45.2 90.8C46.3 87.5 47.5 84 49 80.5C50.1 82.5 51.2 84.6 52.4 86.6C53.6 88.8 54.8 90.7 56 92.7V92.7ZM49 67.2C47.5 63.7 46.3 60.3 45.2 56.9C48.6 56.1 52.2 55.5 56 55C54.8 56.9 53.5 58.9 52.4 61C51.2 63.1 50.1 65.2 49 67.2V67.2ZM74.6 40.1C77 42.7 79.3 45.5 81.5 48.4C79.2 48.3 76.9 48.2 74.6 48.2C72.3 48.2 70 48.3 67.7 48.4C69.9 45.5 72.2 42.7 74.6 40.1ZM96.8 61.1L93.2 55.1C97 55.6 100.6 56.2 104 57C102.9 60.3 101.7 63.8 100.2 67.3C99.1 65.2 98 63.1 96.8 61.1ZM42.3 44.9C40.6 34.4 42 27 46.1 24.6C47.1 24 48.3 23.7 49.6 23.7C55.6 23.7 63.1 28.6 70.6 36C67.1 39.8 63.6 44.2 60.2 49C54.4 49.5 48.9 50.4 43.7 51.5C43.1 49.2 42.7 47 42.3 44.9V44.9ZM17.6 73.9C17.6 69.2 23.3 64.2 33.3 60.5C35.3 59.7 37.5 59 39.7 58.4C41.3 63.4 43.3 68.7 45.7 74C43.3 79.3 41.2 84.5 39.7 89.5C25.9 85.5 17.6 79.5 17.6 73.9ZM46.1 123.2C42 120.8 40.6 113.4 42.3 102.9C42.6 100.8 43.1 98.6 43.7 96.3C48.9 97.5 54.4 98.3 60.2 98.8C63.6 103.6 67.1 107.9 70.6 111.8C63.2 119.1 55.7 124.1 49.6 124.1C48.3 124.1 47.1 123.8 46.1 123.2ZM106.9 102.9C108.6 113.4 107.2 120.8 103.1 123.2C102.1 123.8 100.9 124.1 99.6 124.1C93.6 124.1 86.1 119.2 78.6 111.8C82.1 108 85.6 103.6 89 98.8C94.8 98.3 100.3 97.4 105.5 96.3C106.1 98.6 106.5 100.8 106.9 102.9V102.9ZM115.9 87.3C113.9 88.1 111.7 88.8 109.5 89.4C107.9 84.4 105.9 79.1 103.5 73.8C105.9 68.5 108 63.3 109.5 58.3C123.3 62.3 131.6 68.3 131.6 73.9C131.6 78.6 125.8 83.6 115.9 87.3Z" fill="#4831D4"/>
</svg>
