<svg width="150" height="149" viewBox="0 0 150 149" fill="none" xmlns="http://www.w3.org/2000/svg">
<ellipse cx="75" cy="74.5" rx="75" ry="74.5" fill="#2BFF88"/>
<path d="M96.137 88.946C88.6136 104.327 75.4392 114.676 58.0099 118.078C55.3375 118.733 52.5941 119.053 49.8428 119.031C39.8115 119.031 30.6162 114.852 26.1523 108.005C20.1586 98.8853 18.119 79.5501 37.8805 65.2472C38.2818 67.429 39.101 70.4216 39.6443 72.1938C35.765 75.0759 32.5897 78.8 30.3571 83.0861C26.679 90.3086 27.0886 97.5227 31.4438 104.194C34.4532 108.691 39.218 111.424 45.3454 112.26C52.9987 113.229 60.7629 111.767 67.5396 108.081C78.1643 102.497 85.2447 95.8258 89.8758 86.7057C88.5663 85.3524 87.7912 83.5707 87.694 81.6901C87.624 79.672 88.3575 77.7086 89.7335 76.2307C91.1095 74.7529 93.0156 73.8813 95.0336 73.8072H95.3178C97.2805 73.7974 99.1719 74.5424 100.601 75.8882C102.029 77.2341 102.886 79.0776 102.993 81.0374C103.101 82.9973 102.451 84.9234 101.178 86.4172C99.9045 87.9111 98.1058 88.8584 96.1537 89.063L96.137 88.946ZM120.103 72.0601C130.31 83.6295 130.586 97.2469 126.64 105.146C122.962 112.361 113.265 119.583 100.225 119.583C94.1371 119.459 88.1485 118.019 82.67 115.362C84.5843 113.999 87.3011 111.817 88.7975 110.455C93.0222 112.285 97.5687 113.257 102.172 113.314C110.615 113.314 117.01 109.368 120.822 102.154C123.272 97.389 123.414 91.8049 121.098 86.0871C118.257 78.8929 113.201 72.7889 106.661 68.6578C98.082 62.8743 87.9678 59.7912 77.621 59.8052H75.1717C74.6005 61.1246 73.6714 62.2576 72.4895 63.0761C71.3076 63.8946 69.9201 64.3658 68.4842 64.4363H68.225C66.239 64.4119 64.3407 63.6142 62.9333 62.2127C61.526 60.8111 60.7204 58.9162 60.6878 56.9302C60.6551 54.9443 61.398 53.0239 62.7585 51.5768C64.119 50.1298 65.9901 49.2701 67.9743 49.1805H68.2501C69.6328 49.1815 70.9885 49.5636 72.1682 50.2847C73.348 51.0058 74.3062 52.0381 74.9376 53.2682H77.1194C94.5069 53.2682 109.771 59.939 120.103 72.0601V72.0601ZM50.9295 91.2866C50.7863 89.8985 51.1226 88.5032 51.8825 87.3327C44.2587 74.1248 40.1793 57.381 46.4405 39.9517C50.9295 26.8526 62.2314 18 74.4862 18C87.5603 18 101.178 29.444 102.808 51.496C100.768 50.8189 97.7922 49.8241 96.0032 49.4563C95.5602 42.2422 89.4662 24.2695 75.0296 24.537C69.8551 24.6791 62.2314 27.1284 58.3108 32.1608C53.4612 38.168 50.6401 45.5575 50.2524 53.2682C49.3335 63.8409 51.814 74.4309 57.3328 83.4957C57.6374 83.3844 57.9622 83.3388 58.2857 83.362H58.5532C60.5752 83.3254 62.5289 84.0935 63.9845 85.4974C65.44 86.9012 66.2783 88.8258 66.3149 90.8478C66.3515 92.8697 65.5834 94.8234 64.1795 96.279C62.7757 97.7346 60.8511 98.5729 58.8291 98.6095H58.5532C56.5807 98.6024 54.6869 97.8345 53.2667 96.4656C51.8464 95.0967 51.0092 93.2325 50.9295 91.2616V91.2866Z" fill="#4831D4"/>
</svg>
